# xmcd CD database file
#
# Track frame offsets:
#	150
#	19952
#	42890
#
# Disc length: 847 seconds
#
# Revision: 0
# Processed by: cddbd v1.5.1PL0 Copyright (c) Steve Scherf et al.
# Submitted via: CDex 1.51
#
DISCID=1d034d03
DTITLE=ラッパ我リヤ - Do the GARIYA thing
DYEAR=2000
DGENRE=Hip Hop
TTITLE0=Do the GARIYA thing
TTITLE1=機関銃ライム
TTITLE2=Do the GARIYA thing (DJ WATARAI Remix)
EXTD=YEAR: 2000
EXTT0=
EXTT1=
EXTT2=
PLAYORDER=
